SplineFontDB: 3.2
FontName: Untitled1
FullName: Untitled1
FamilyName: Untitled1
Weight: Regular
Copyright: Copyright (c) 2023, marco
UComments: "2023-11-13: Created with FontForge (http://fontforge.org)"
Version: 001.000
ItalicAngle: 0
UnderlinePosition: -100
UnderlineWidth: 50
Ascent: 800
Descent: 200
InvalidEm: 0
LayerCount: 2
Layer: 0 0 "Back" 1
Layer: 1 0 "Fore" 0
XUID: [1021 911 -2007445060 9613]
StyleMap: 0x0000
FSType: 0
OS2Version: 0
OS2_WeightWidthSlopeOnly: 0
OS2_UseTypoMetrics: 1
CreationTime: 1699913974
ModificationTime: 1699915293
OS2TypoAscent: 0
OS2TypoAOffset: 1
OS2TypoDescent: 0
OS2TypoDOffset: 1
OS2TypoLinegap: 90
OS2WinAscent: 0
OS2WinAOffset: 1
OS2WinDescent: 0
OS2WinDOffset: 1
HheadAscent: 0
HheadAOffset: 1
HheadDescent: 0
HheadDOffset: 1
DEI: 91125
Encoding: ISO8859-1
UnicodeInterp: none
NameList: AGL For New Fonts
DisplaySize: -48
AntiAlias: 1
FitToEm: 0
WinInfo: 0 35 12
BeginChars: 256 28

StartChar: A
Encoding: 65 65 0
Width: 1000
Flags: H
LayerCount: 2
Fore
SplineSet
0 -200 m 5
 1000 -200 l 5
 1000 800 l 5
 0 800 l 5
 0 -200 l 5
990 -190 m 5
 10 -190 l 5
 10 790 l 5
 990 790 l 5
 990 -190 l 5
500 550 m 5
 283.494140625 40 l 5
 716.505859375 40 l 5
 500 550 l 5
EndSplineSet
Validated: 524297
EndChar

StartChar: B
Encoding: 66 66 1
Width: 1000
HStem: -40 360<414.201 585.799> 360 240<432.907 567.093>
VStem: 320 360<54.2014 225.799> 380 240<412.907 547.093>
LayerCount: 2
Fore
SplineSet
0 -200 m 1xc0
 1000 -200 l 1
 1000 800 l 1
 0 800 l 1
 0 -200 l 1xc0
990 -190 m 1
 10 -190 l 1
 10 790 l 1
 990 790 l 1
 990 -190 l 1
320 140 m 0xe0
 320 40.5888671875 400.588867188 -40 500 -40 c 0
 599.411132812 -40 680 40.5888671875 680 140 c 0
 680 239.411132812 599.411132812 320 500 320 c 0
 400.588867188 320 320 239.411132812 320 140 c 0xe0
380 480 m 0xd0
 380 413.725585938 433.725585938 360 500 360 c 0
 566.274414062 360 620 413.725585938 620 480 c 0
 620 546.274414062 566.274414062 600 500 600 c 0
 433.725585938 600 380 546.274414062 380 480 c 0xd0
EndSplineSet
Validated: 9
EndChar

StartChar: C
Encoding: 67 67 2
Width: 1000
HStem: 140 330<352.87 517.13>
VStem: 270 330<222.87 387.13>
LayerCount: 2
Fore
SplineSet
0 -200 m 1
 1000 -200 l 1
 1000 800 l 1
 0 800 l 1
 0 -200 l 1
990 -190 m 1
 10 -190 l 1
 10 790 l 1
 990 790 l 1
 990 -190 l 1
270 305 m 0
 270 213.873046875 343.873046875 140 435 140 c 0
 526.126953125 140 600 213.873046875 600 305 c 0
 600 396.126953125 526.126953125 470 435 470 c 0
 343.873046875 470 270 396.126953125 270 305 c 0
730 390 m 1
 620 390 l 1
 620 220 l 1
 730 220 l 1
 730 390 l 1
EndSplineSet
Validated: 9
EndChar

StartChar: D
Encoding: 68 68 3
Width: 1000
HStem: 100 400<494.838 591.05>
VStem: 300 190<189.543 410.457>
LayerCount: 2
Fore
SplineSet
0 -200 m 1
 1000 -200 l 1
 1000 800 l 1
 0 800 l 1
 0 -200 l 1
990 -190 m 1
 10 -190 l 1
 10 790 l 1
 990 790 l 1
 990 -190 l 1
300 300 m 0
 300 189.54296875 389.54296875 100 500 100 c 0
 610.45703125 100 700 189.54296875 700 300 c 0
 700 410.45703125 610.45703125 500 500 500 c 0
 389.54296875 500 300 410.45703125 300 300 c 0
490 500 m 1
 290 500 l 1
 290 100 l 1
 490 100 l 1
 490 500 l 1
EndSplineSet
Validated: 5
EndChar

StartChar: E
Encoding: 69 69 4
Width: 1000
LayerCount: 2
Fore
SplineSet
0 -200 m 1
 1000 -200 l 1
 1000 800 l 1
 0 800 l 1
 0 -200 l 1
990 -190 m 1
 10 -190 l 1
 10 790 l 1
 990 790 l 1
 990 -190 l 1
290 530 m 1
 290 440 l 1
 620 440 l 1
 620 530 l 1
 290 530 l 1
290 130 m 1
 290 40 l 1
 700 40 l 1
 700 130 l 1
 290 130 l 1
290 40 m 1
 380 40 l 1
 380 530 l 1
 290 530 l 1
 290 40 l 1
EndSplineSet
Validated: 5
EndChar

StartChar: F
Encoding: 70 70 5
Width: 1000
LayerCount: 2
Fore
SplineSet
0 -200 m 1
 1000 -200 l 1
 1000 800 l 1
 0 800 l 1
 0 -200 l 1
990 -190 m 1
 10 -190 l 1
 10 790 l 1
 990 790 l 1
 990 -190 l 1
350 530 m 1
 350 420 l 1
 640 420 l 1
 640 530 l 1
 350 530 l 1
350 40 m 1
 580 40 l 1
 580 310 l 1
 350 310 l 1
 350 40 l 1
EndSplineSet
Validated: 9
EndChar

StartChar: G
Encoding: 71 71 6
Width: 1000
HStem: 300 184.776<501.286 615.202>
VStem: 315.224 184.776<184.798 298.714>
LayerCount: 2
Fore
SplineSet
0 -200 m 1
 1000 -200 l 1
 1000 800 l 1
 0 800 l 1
 0 -200 l 1
990 -190 m 1
 10 -190 l 1
 10 790 l 1
 990 790 l 1
 990 -190 l 1
700 300 m 1
 700 339.555664062 688.26953125 378.223632812 666.293945312 411.114257812 c 0
 644.318359375 444.00390625 613.08203125 469.637695312 576.537109375 484.776367188 c 0
 539.991210938 499.913085938 499.778320312 503.874023438 460.982421875 496.157226562 c 0
 422.185546875 488.440429688 386.548828125 469.391601562 358.579101562 441.420898438 c 0
 330.608398438 413.451171875 311.559570312 377.814453125 303.842773438 339.017578125 c 0
 296.125976562 300.221679688 300.086914062 260.008789062 315.223632812 223.462890625 c 0
 330.362304688 186.91796875 355.99609375 155.681640625 388.885742188 133.706054688 c 0
 421.776367188 111.73046875 460.444335938 100 500 100 c 1
 500 300 l 1
 700 300 l 1
EndSplineSet
Validated: 41
EndChar

StartChar: H
Encoding: 72 72 7
Width: 1000
LayerCount: 2
Fore
SplineSet
0 -200 m 1
 1000 -200 l 1
 1000 800 l 1
 0 800 l 1
 0 -200 l 1
990 -190 m 1
 10 -190 l 1
 10 790 l 1
 990 790 l 1
 990 -190 l 1
380 360 m 1
 620 360 l 1
 620 530 l 1
 380 530 l 1
 380 360 l 1
380 10 m 1
 620 10 l 1
 620 240 l 1
 380 240 l 1
 380 10 l 1
EndSplineSet
Validated: 9
EndChar

StartChar: N
Encoding: 78 78 8
Width: 1000
LayerCount: 2
Fore
SplineSet
0 -200 m 1
 1000 -200 l 1
 1000 800 l 1
 0 800 l 1
 0 -200 l 1
990 -190 m 1
 10 -190 l 1
 10 790 l 1
 990 790 l 1
 990 -190 l 1
340 360 m 1
 340 30 l 1
 610 30 l 1
 340 360 l 1
650 250 m 1
 650 580 l 1
 380 580 l 1
 650 250 l 1
EndSplineSet
Validated: 9
EndChar

StartChar: I
Encoding: 73 73 9
Width: 1000
LayerCount: 2
Fore
SplineSet
0 -200 m 1
 1000 -200 l 1
 1000 800 l 1
 0 800 l 1
 0 -200 l 1
990 -190 m 1
 10 -190 l 1
 10 790 l 1
 990 790 l 1
 990 -190 l 1
370 120 m 1
 460 120 l 1
 460 490 l 1
 370 490 l 1
 370 120 l 1
330 150 m 1
 370 150 l 1
 370 460 l 1
 330 460 l 1
 330 150 l 1
620 150 m 1
 660 150 l 1
 660 460 l 1
 620 460 l 1
 620 150 l 1
530 120 m 1
 620 120 l 1
 620 490 l 1
 530 490 l 1
 530 120 l 1
EndSplineSet
Validated: 5
EndChar

StartChar: M
Encoding: 77 77 10
Width: 1000
LayerCount: 2
Fore
SplineSet
0 -200 m 1
 1000 -200 l 1
 1000 800 l 1
 0 800 l 1
 0 -200 l 1
990 -190 m 1
 10 -190 l 1
 10 790 l 1
 990 790 l 1
 990 -190 l 1
500 210 m 1
 673.205078125 487.5 l 1
 326.794921875 487.5 l 1
 500 210 l 1
270 320 m 1
 270 30 l 1
 430 30 l 1
 270 320 l 1
730 320 m 1
 570 30 l 1
 730 30 l 1
 730 320 l 1
EndSplineSet
Validated: 9
EndChar

StartChar: L
Encoding: 76 76 11
Width: 1000
LayerCount: 2
Fore
SplineSet
0 -200 m 1
 1000 -200 l 1
 1000 800 l 1
 0 800 l 1
 0 -200 l 1
990 -190 m 1
 10 -190 l 1
 10 790 l 1
 990 790 l 1
 990 -190 l 1
490 260 m 1
 690 260 l 1
 690 530 l 1
 490 530 l 1
 490 260 l 1
300 170 m 1
 400 170 l 1
 400 530 l 1
 300 530 l 1
 300 170 l 1
400 70 m 1
 700 70 l 1
 700 170 l 1
 400 170 l 1
 400 70 l 1
EndSplineSet
Validated: 5
EndChar

StartChar: K
Encoding: 75 75 12
Width: 1000
LayerCount: 2
Fore
SplineSet
0 -200 m 1
 1000 -200 l 1
 1000 800 l 1
 0 800 l 1
 0 -200 l 1
990 -190 m 1
 10 -190 l 1
 10 790 l 1
 990 790 l 1
 990 -190 l 1
320 350 m 1
 510 560 l 1
 320 560 l 1
 320 350 l 1
322.7265625 255 m 1
 322.7265625 45 l 1
 512.7265625 45 l 1
 322.7265625 255 l 1
440 300 m 1
 620 109.473632812 l 1
 620 490.526367188 l 1
 440 300 l 1
EndSplineSet
Validated: 9
EndChar

StartChar: J
Encoding: 74 74 13
Width: 1000
HStem: 140 120<489.249 610.751>
VStem: 440 220<84.1854 210.751>
LayerCount: 2
Fore
SplineSet
0 -200 m 1
 1000 -200 l 1
 1000 800 l 1
 0 800 l 1
 0 -200 l 1
990 -190 m 1
 10 -190 l 1
 10 790 l 1
 990 790 l 1
 990 -190 l 1
440 150 m 0
 440 89.2490234375 489.249023438 40 550 40 c 0
 610.750976562 40 660 89.2490234375 660 150 c 0
 660 210.750976562 610.750976562 260 550 260 c 0
 489.249023438 260 440 210.750976562 440 150 c 0
320 140 m 1
 660 140 l 1
 660 510 l 1
 320 510 l 1
 320 140 l 1
EndSplineSet
Validated: 5
EndChar

StartChar: O
Encoding: 79 79 14
Width: 1000
HStem: 100 400<408.95 591.05>
VStem: 300 400<208.95 391.05>
LayerCount: 2
Fore
SplineSet
0 -200 m 1
 1000 -200 l 1
 1000 800 l 1
 0 800 l 1
 0 -200 l 1
990 -190 m 1
 10 -190 l 1
 10 790 l 1
 990 790 l 1
 990 -190 l 1
300 300 m 0
 300 189.54296875 389.54296875 100 500 100 c 0
 610.45703125 100 700 189.54296875 700 300 c 0
 700 410.45703125 610.45703125 500 500 500 c 0
 389.54296875 500 300 410.45703125 300 300 c 0
EndSplineSet
Validated: 9
EndChar

StartChar: P
Encoding: 80 80 15
Width: 1000
HStem: 340 240<392.907 527.093>
VStem: 340 240<392.907 527.093>
LayerCount: 2
Fore
SplineSet
0 -200 m 1
 1000 -200 l 1
 1000 800 l 1
 0 800 l 1
 0 -200 l 1
990 -190 m 1
 10 -190 l 1
 10 790 l 1
 990 790 l 1
 990 -190 l 1
340 460 m 0
 340 393.725585938 393.725585938 340 460 340 c 0
 526.274414062 340 580 393.725585938 580 460 c 0
 580 526.274414062 526.274414062 580 460 580 c 0
 393.725585938 580 340 526.274414062 340 460 c 0
340 30 m 1
 650 30 l 1
 650 240 l 1
 340 240 l 1
 340 30 l 1
EndSplineSet
Validated: 9
EndChar

StartChar: R
Encoding: 82 82 16
Width: 1000
HStem: 320 240<412.907 547.093>
VStem: 360 240<372.907 507.093>
LayerCount: 2
Fore
SplineSet
0 -200 m 1
 1000 -200 l 1
 1000 800 l 1
 0 800 l 1
 0 -200 l 1
990 -190 m 1
 10 -190 l 1
 10 790 l 1
 990 790 l 1
 990 -190 l 1
360 250 m 1
 360 40 l 1
 650 40 l 1
 360 250 l 1
360 440 m 0
 360 373.725585938 413.725585938 320 480 320 c 0
 546.274414062 320 600 373.725585938 600 440 c 0
 600 506.274414062 546.274414062 560 480 560 c 0
 413.725585938 560 360 506.274414062 360 440 c 0
EndSplineSet
Validated: 9
EndChar

StartChar: S
Encoding: 83 83 17
Width: 1000
HStem: 90 170<389.374 500.626> 340 170<499.374 610.626>
VStem: 360 170<119.374 230.626> 470 170<369.374 480.626>
LayerCount: 2
Fore
SplineSet
0 -200 m 1xc0
 1000 -200 l 1
 1000 800 l 1
 0 800 l 1
 0 -200 l 1xc0
990 -190 m 1
 10 -190 l 1
 10 790 l 1
 990 790 l 1
 990 -190 l 1
470 425 m 0xd0
 470 378.055664062 508.055664062 340 555 340 c 0
 601.944335938 340 640 378.055664062 640 425 c 0
 640 471.944335938 601.944335938 510 555 510 c 0
 508.055664062 510 470 471.944335938 470 425 c 0xd0
360 175 m 0xe0
 360 128.055664062 398.055664062 90 445 90 c 0
 491.944335938 90 530 128.055664062 530 175 c 0
 530 221.944335938 491.944335938 260 445 260 c 0
 398.055664062 260 360 221.944335938 360 175 c 0xe0
EndSplineSet
Validated: 9
EndChar

StartChar: T
Encoding: 84 84 18
Width: 1000
LayerCount: 2
Fore
SplineSet
360 120 m 1
 450 120 l 1
 450 490 l 1
 360 490 l 1
 360 120 l 1
320 120 m 1
 360 120 l 1
 360 450 l 1
 320 450 l 1
 320 120 l 1
630 120 m 1
 670 120 l 1
 670 450 l 1
 630 450 l 1
 630 120 l 1
540 120 m 1
 630 120 l 1
 630 490 l 1
 540 490 l 1
 540 120 l 1
0 -200 m 1
 1000 -200 l 1
 1000 800 l 1
 0 800 l 1
 0 -200 l 1
990 -190 m 1
 10 -190 l 1
 10 790 l 1
 990 790 l 1
 990 -190 l 1
EndSplineSet
Validated: 5
EndChar

StartChar: U
Encoding: 85 85 19
Width: 1000
HStem: 220 170<417.157 582.843>
LayerCount: 2
Fore
SplineSet
0 -200 m 1
 1000 -200 l 1
 1000 800 l 1
 0 800 l 1
 0 -200 l 1
990 -190 m 1
 10 -190 l 1
 10 790 l 1
 990 790 l 1
 990 -190 l 1
350 240 m 0
 350 157.157226562 417.157226562 90 500 90 c 0
 582.842773438 90 650 157.157226562 650 240 c 0
 650 322.842773438 582.842773438 390 500 390 c 0
 417.157226562 390 350 322.842773438 350 240 c 0
350 220 m 1
 650 220 l 1
 650 520 l 1
 350 520 l 1
 350 220 l 1
EndSplineSet
Validated: 5
EndChar

StartChar: V
Encoding: 86 86 20
Width: 1000
LayerCount: 2
Fore
SplineSet
500 30 m 1
 716.505859375 540 l 1
 283.494140625 540 l 1
 500 30 l 1
0 -200 m 1
 1000 -200 l 1
 1000 800 l 1
 0 800 l 1
 0 -200 l 1
990 -190 m 1
 10 -190 l 1
 10 790 l 1
 990 790 l 1
 990 -190 l 1
EndSplineSet
Validated: 9
EndChar

StartChar: Z
Encoding: 90 90 21
Width: 1000
LayerCount: 2
Fore
SplineSet
0 -200 m 1
 1000 -200 l 1
 1000 800 l 1
 0 800 l 1
 0 -200 l 1
990 -190 m 1
 10 -190 l 1
 10 790 l 1
 990 790 l 1
 990 -190 l 1
260 200 m 1
 560 510 l 1
 260 510 l 1
 260 200 l 1
730 400 m 1
 430 90 l 1
 730 90 l 1
 730 400 l 1
EndSplineSet
Validated: 9
EndChar

StartChar: Y
Encoding: 89 89 22
Width: 1000
LayerCount: 2
Fore
SplineSet
0 -200 m 1
 1000 -200 l 1
 1000 800 l 1
 0 800 l 1
 0 -200 l 1
990 -190 m 1
 10 -190 l 1
 10 790 l 1
 990 790 l 1
 990 -190 l 1
750 560 m 1
 560 240 l 1
 750 240 l 1
 750 560 l 1
240 560 m 1
 240 240 l 1
 430 240 l 1
 240 560 l 1
240 50 m 1
 430 50 l 1
 430 240 l 1
 240 240 l 1
 240 50 l 1
560 50 m 1
 750 50 l 1
 750 240 l 1
 560 240 l 1
 560 50 l 1
EndSplineSet
Validated: 5
EndChar

StartChar: X
Encoding: 88 88 23
Width: 1000
LayerCount: 2
Fore
SplineSet
0 -200 m 1
 1000 -200 l 1
 1000 800 l 1
 0 800 l 1
 0 -200 l 1
990 -190 m 1
 10 -190 l 1
 10 790 l 1
 990 790 l 1
 990 -190 l 1
495 360 m 1
 611.913085938 555 l 1
 378.086914062 555 l 1
 495 360 l 1
380 305 m 1
 252.5 499.856445312 l 1
 252.5 110.143554688 l 1
 380 305 l 1
610 305 m 1
 737.5 127.46484375 l 1
 737.5 482.53515625 l 1
 610 305 l 1
495 250 m 1
 378.086914062 55 l 1
 611.913085938 55 l 1
 495 250 l 1
EndSplineSet
Validated: 9
EndChar

StartChar: W
Encoding: 87 87 24
Width: 1000
LayerCount: 2
Fore
SplineSet
495 330 m 1
 400 50 l 1
 590 50 l 1
 495 330 l 1
0 -200 m 1
 1000 -200 l 1
 1000 800 l 1
 0 800 l 1
 0 -200 l 1
990 -190 m 1
 10 -190 l 1
 10 790 l 1
 990 790 l 1
 990 -190 l 1
810 550 m 1
 700 50 l 1
 810 50 l 1
 810 550 l 1
180 550 m 1
 180 50 l 1
 290 50 l 1
 180 550 l 1
EndSplineSet
Validated: 9
EndChar

StartChar: s
Encoding: 115 115 26
Width: 1000
Flags: HW
LayerCount: 2
Fore
SplineSet
0 -200 m 1
 1000 -200 l 1
 1000 800 l 1
 0 800 l 1
 0 -200 l 1
990 -190 m 1
 10 -190 l 1
 10 790 l 1
 990 790 l 1
 990 -190 l 1
EndSplineSet
Validated: 9
EndChar

StartChar: space
Encoding: 32 32 27
Width: 1000
Flags: HWO
LayerCount: 2
Fore
SplineSet
0 -200 m 1
 1000 -200 l 1
 1000 800 l 1
 0 800 l 1
 0 -200 l 1
990 -190 m 1
 10 -190 l 1
 10 790 l 1
 990 790 l 1
 990 -190 l 1
EndSplineSet
EndChar
